<?xml version="1.0" standalone="no"?>
<!DOCTYPE svg PUBLIC "-//W3C//DTD SVG 20010904//EN"
 "http://www.w3.org/TR/2001/REC-SVG-20010904/DTD/svg10.dtd">
<svg version="1.0" xmlns="http://www.w3.org/2000/svg"
 width="500.000000pt" height="500.000000pt" viewBox="0 0 500.000000 500.000000"
 preserveAspectRatio="xMidYMid meet">
<metadata>
Created by potrace 1.14, written by Peter Selinger 2001-2017
</metadata>
<g transform="translate(0.000000,500.000000) scale(0.100000,-0.100000)"
fill="#000000" stroke="none">
<path d="M2249 4885 c-2 -1 -29 -5 -60 -8 -30 -4 -75 -10 -100 -16 -24 -5 -60
-12 -79 -15 -19 -3 -50 -10 -69 -15 -19 -6 -37 -8 -42 -6 -4 3 -15 -2 -23 -11
-9 -8 -16 -13 -16 -10 0 7 -143 -34 -157 -46 -7 -6 -13 -7 -13 -3 0 4 -6 3
-12 -3 -7 -6 -16 -11 -21 -11 -4 0 -22 -7 -40 -15 -19 -7 -45 -17 -58 -21 -13
-4 -32 -14 -41 -23 -10 -8 -18 -12 -18 -8 0 3 -19 -4 -42 -16 -24 -12 -46 -21
-50 -20 -5 1 -8 -3 -8 -10 0 -6 -3 -9 -6 -5 -4 3 -26 -7 -49 -23 -23 -16 -45
-26 -49 -23 -3 4 -6 1 -6 -6 0 -7 -4 -10 -9 -7 -5 4 -11 3 -13 -1 -4 -11 -69
-58 -88 -65 -32 -12 -212 -152 -282 -220 -21 -20 -38 -35 -38 -33 0 2 -20 -16
-45 -42 -25 -25 -45 -46 -45 -48 0 -1 -21 -24 -48 -52 -57 -61 -92 -102 -92
-108 0 -3 -9 -15 -20 -27 -12 -13 -27 -30 -35 -38 -7 -8 -15 -22 -17 -30 -2
-7 -13 -24 -25 -36 -13 -12 -23 -26 -23 -33 0 -6 -3 -11 -8 -11 -9 0 -38 -61
-34 -73 1 -5 -2 -5 -8 -2 -7 4 -14 -2 -17 -14 -3 -12 -10 -21 -16 -21 -6 0 -7
-3 -4 -7 4 -3 0 -15 -10 -25 -9 -10 -12 -18 -8 -18 4 0 1 -8 -7 -17 -8 -10
-21 -33 -29 -50 -8 -18 -17 -33 -21 -33 -5 0 -8 -9 -8 -19 0 -11 -4 -23 -10
-26 -5 -3 -10 -15 -10 -26 0 -10 -4 -19 -10 -19 -5 0 -10 -8 -10 -18 0 -10 -5
-23 -12 -30 -7 -7 -8 -12 -4 -12 5 0 2 -10 -6 -22 -14 -21 -57 -142 -62 -171
-1 -7 -5 -18 -9 -24 -5 -7 -10 -21 -12 -31 -1 -9 -9 -37 -16 -62 -12 -46 -15
-57 -23 -100 -2 -14 -7 -41 -11 -60 -3 -19 -8 -48 -11 -65 -3 -16 -7 -39 -8
-51 -2 -11 -6 -26 -10 -32 -4 -7 -2 -12 5 -12 7 0 8 -4 2 -12 -22 -30 -22
-525 -1 -512 6 4 5 -3 -1 -13 -6 -11 -8 -22 -6 -24 4 -5 6 -16 26 -144 6 -38
14 -77 17 -85 3 -8 6 -19 6 -25 6 -41 30 -132 38 -142 6 -7 7 -13 3 -13 -4 0
-2 -7 5 -15 7 -8 10 -15 7 -15 -4 0 1 -19 9 -42 9 -24 17 -47 18 -53 11 -40
89 -220 98 -223 4 -2 5 -9 2 -14 -4 -6 0 -16 8 -22 8 -6 20 -28 27 -48 7 -21
16 -38 19 -38 4 0 13 -14 21 -32 18 -39 131 -212 143 -216 4 -2 8 -10 8 -17 0
-8 10 -21 22 -29 12 -9 18 -16 13 -16 -5 0 0 -9 11 -20 32 -32 43 -48 38 -53
-3 -3 4 -8 15 -12 12 -3 21 -10 21 -15 0 -5 12 -22 26 -37 14 -15 34 -37 43
-48 9 -11 33 -34 53 -52 20 -17 34 -34 31 -37 -4 -3 -2 -6 3 -6 6 0 26 -15 46
-32 62 -57 92 -82 153 -128 33 -25 62 -48 63 -52 2 -5 10 -8 18 -8 8 0 14 -4
14 -10 0 -5 6 -10 13 -10 7 0 24 -10 38 -22 14 -13 49 -36 79 -52 30 -16 57
-32 60 -35 7 -8 53 -29 61 -27 4 0 16 -7 27 -17 10 -10 29 -20 42 -22 13 -2
32 -12 42 -22 11 -10 21 -17 22 -15 0 2 15 -2 31 -9 17 -7 32 -13 35 -14 3 -1
13 -5 23 -8 30 -12 47 -17 51 -14 1 1 9 -3 17 -9 15 -12 127 -50 172 -58 14
-2 32 -8 38 -12 7 -4 22 -9 33 -10 12 -2 55 -10 96 -18 200 -38 287 -48 460
-49 126 -1 318 11 334 20 5 4 24 7 40 9 17 1 69 10 116 19 47 10 91 18 98 18
6 0 12 3 12 6 0 3 14 7 32 8 17 1 34 6 37 10 3 5 15 9 26 10 20 3 56 10 65 13
3 2 8 2 13 1 4 0 7 4 7 10 0 5 5 7 10 4 6 -4 17 -1 25 5 8 6 19 9 25 5 5 -3
10 -1 10 4 0 6 7 11 15 11 8 0 15 5 15 11 0 5 4 8 9 5 10 -7 252 100 262 115
3 6 8 10 10 9 11 -5 77 35 72 43 -3 6 -1 7 4 4 10 -6 179 99 211 130 7 7 16
13 20 13 4 0 23 14 42 31 19 16 52 44 74 62 21 18 57 50 80 72 22 21 44 38 49
37 4 -1 7 2 7 7 0 5 27 37 60 71 33 34 60 66 60 71 0 6 4 8 9 5 4 -3 13 6 19
19 7 14 16 25 22 25 6 0 9 4 5 9 -3 6 4 15 15 21 11 6 20 17 20 25 0 8 4 15 8
15 4 0 21 20 36 45 16 25 33 45 38 45 5 0 6 5 3 10 -3 6 -3 10 2 10 8 0 37 46
41 63 1 4 8 15 17 23 8 9 15 22 15 30 0 8 4 14 9 14 5 0 14 14 20 30 5 17 15
30 20 30 6 0 10 3 9 8 -5 13 24 72 35 72 6 0 8 3 4 6 -3 4 2 23 12 43 11 20
19 39 20 44 0 4 8 21 16 37 9 17 13 30 10 30 -4 0 1 7 9 16 9 8 14 19 11 24
-3 5 -1 11 5 15 6 4 8 11 5 16 -4 5 -1 9 6 9 7 0 9 3 6 6 -3 4 -2 15 4 26 6
11 12 27 14 36 2 9 17 61 33 115 18 60 25 97 18 97 -7 0 -7 3 -1 8 6 4 11 13
13 21 1 7 9 45 18 84 8 39 12 77 10 84 -3 7 -2 13 2 13 4 0 8 12 8 28 1 15 5
63 9 107 10 107 11 291 1 390 -4 44 -8 92 -9 108 0 15 -5 27 -9 27 -5 0 -6 4
-3 10 3 5 1 38 -6 72 -6 35 -13 70 -14 78 -3 23 -14 66 -42 165 -14 50 -26 95
-27 102 -1 7 -5 16 -9 19 -4 4 -7 13 -7 19 0 7 -8 30 -17 51 -9 22 -18 44 -19
49 -8 33 -104 234 -116 241 -5 3 -6 9 -3 14 3 4 -2 13 -10 20 -8 7 -15 16 -15
21 0 11 -80 139 -102 163 -10 11 -18 23 -18 27 0 3 -20 33 -45 65 -25 33 -56
72 -68 88 -40 52 -274 286 -286 286 -7 0 -9 5 -6 10 3 6 -1 10 -9 10 -9 0 -16
4 -16 8 0 5 -11 15 -25 22 -13 7 -22 17 -19 22 3 4 -1 8 -8 8 -7 0 -29 14 -48
30 -19 17 -43 33 -52 36 -10 3 -18 9 -18 14 0 5 -8 11 -18 14 -10 4 -27 14
-38 24 -11 9 -37 26 -59 37 -22 11 -45 25 -51 30 -6 6 -42 26 -80 45 -38 19
-72 39 -76 45 -4 5 -8 7 -8 3 0 -3 -44 14 -97 38 -54 24 -103 44 -109 44 -7 0
-24 7 -40 14 -15 8 -31 13 -36 10 -4 -3 -8 -1 -8 4 0 6 -15 12 -32 15 -45 7
-76 15 -89 22 -5 4 -25 9 -42 12 -18 3 -36 6 -42 7 -5 1 -16 5 -23 10 -7 4
-16 6 -18 3 -3 -3 -20 -1 -37 4 -40 11 -112 22 -154 23 -18 1 -33 4 -33 8 0 7
-524 10 -531 3z"/>
</g>
</svg>
